<?xml version="1.0" encoding="utf-8"?>
<!-- Svg Vector Icons : http://www.sfont.cn -->
<!DOCTYPE svg PUBLIC "-//W3C//DTD SVG 1.1//EN" "http://www.w3.org/Graphics/SVG/1.1/DTD/svg11.dtd">
<svg version="1.1" xmlns="http://www.w3.org/2000/svg" xmlns:xlink="http://www.w3.org/1999/xlink" x="0px" y="0px" viewBox="0 0 1000 1000" enable-background="new 0 0 1000 1000" xml:space="preserve">
<metadata> Svg Vector Icons : http://www.sfont.cn </metadata>
<g><g><path d="M817.7,844.1c0,0,38.6,1.9,50.8-42.7l119.4-353.6c0,0,18.1-64.8-50.7-64.8c0,0-562.9,0-704.7,0c-9.3,0-21.2,13.3-30.9,27.2c-11.2,15.9-18.5,45.8-18.6,65.3l-1.3,284.3c-0.1,19.5,9,48.2,22.6,62.2c11.3,11.6,24.7,22.5,35.2,22.5L817.7,844.1z M99.8,827.6c-11.3-10.8-13-40.8-15.4-60.2l-68-534c-2.5-19.3-5.9-21.4-6.2-29.9c-0.1-3.2-0.2-8-0.2-15.3c0-11.9,2.9-19.6,6.9-24.4c9.1-11,39.3-7.9,58.7-7.9h245.7c14.4,0,22.5,6.2,27.2,14.1c9,15.3,3.9,48.2,13.3,65.2c16,28.6,50.2,30.9,50.2,30.9l429.4-2c11,0,17.8,3.6,22,8.3c8.9,10,7.4,35.1-2.3,44c-9,8.2-21.6,9-21.6,9H190.9c-38.3,0-54.4,18.8-60.9,37.2c-6.5,18.3-3.9,50.6-4,70l-1.3,372.9C124.6,825,111.1,838.3,99.8,827.6z"/></g><g></g><g></g><g></g><g></g><g></g><g></g><g></g><g></g><g></g><g></g><g></g><g></g><g></g><g></g><g></g></g>
</svg>